<?xml version="1.0" standalone="no"?>
<!DOCTYPE svg PUBLIC "-//W3C//DTD SVG 20010904//EN"
 "http://www.w3.org/TR/2001/REC-SVG-20010904/DTD/svg10.dtd">
<svg version="1.0" xmlns="http://www.w3.org/2000/svg"
 width="256.000000pt" height="256.000000pt" viewBox="0 0 256.000000 256.000000"
 preserveAspectRatio="xMidYMid meet">
<metadata>
Created by potrace 1.11, written by Peter Selinger 2001-2013
</metadata>
<g transform="translate(0.000000,256.000000) scale(0.100000,-0.100000)"
fill="#000000" stroke="none">
<path d="M0 1280 l0 -1281 219 2 c156 1 221 4 225 12 3 9 5 8 5 0 1 -8 14 -13
34 -13 24 0 28 3 17 10 -9 6 -10 10 -3 10 6 0 15 -5 18 -10 4 -6 51 -10 111
-9 l104 1 -5 26 c-5 27 -5 27 6 -2 9 -21 14 -25 20 -15 6 10 9 11 9 2 0 -9 18
-13 58 -13 l57 1 -45 42 c-24 23 -60 60 -80 82 l-35 40 42 -37 c23 -20 52 -43
65 -52 13 -8 32 -29 43 -46 21 -31 49 -42 39 -15 -5 13 -1 13 24 -2 33 -19 52
-13 34 10 -14 16 -82 146 -82 155 0 4 7 -4 16 -16 17 -24 36 -30 28 -8 -3 8 0
17 7 22 8 4 15 2 17 -5 9 -28 63 -79 89 -84 19 -3 32 2 50 21 13 14 21 27 18
30 -2 3 3 11 12 17 12 9 17 28 17 68 1 44 4 53 16 49 13 -5 13 -3 2 10 -7 9
-12 20 -11 24 4 26 -3 44 -22 54 -11 7 -23 9 -26 6 -3 -3 5 -10 18 -15 17 -7
5 -8 -42 -4 -71 6 -110 -7 -160 -54 -29 -27 -31 -26 -47 27 -23 72 -23 98 -2
113 11 7 17 17 12 21 -4 4 0 6 8 4 9 -2 15 4 15 17 0 11 6 20 14 20 8 0 16 6
19 14 3 9 0 11 -9 6 -8 -5 -11 -4 -6 1 5 5 14 9 19 9 6 0 13 6 16 14 3 8 0 11
-7 7 -6 -4 3 20 21 53 33 59 53 79 25 24 -8 -15 -12 -33 -10 -40 2 -6 -3 -25
-11 -42 -9 -16 -16 -34 -16 -38 1 -17 31 45 46 95 9 30 17 52 19 50 1 -2 5
-33 8 -70 l6 -66 -55 -18 c-33 -10 -62 -26 -70 -40 -8 -12 -24 -24 -34 -27
-11 -3 -20 -11 -20 -17 0 -7 15 -1 32 14 44 35 94 58 144 63 40 5 42 4 68 -40
36 -63 50 -68 26 -10 -21 50 -12 42 30 -28 14 -22 33 -45 44 -51 13 -7 9 3
-14 37 -17 25 -30 49 -27 51 3 3 13 -8 23 -25 23 -40 47 -42 39 -3 -5 24 -4
23 10 -7 18 -39 18 -44 5 -36 -5 3 -10 1 -10 -4 0 -14 6 -14 30 -1 13 7 21 6
29 -4 21 -25 52 -5 77 48 16 35 22 41 17 21 -3 -16 -10 -38 -15 -48 -5 -10 -7
-21 -5 -23 7 -7 45 49 68 101 28 63 31 56 7 -15 -11 -33 -23 -60 -27 -60 -4 0
-8 -7 -8 -15 0 -8 4 -15 7 -15 25 0 59 90 70 180 l8 65 -1 -88 c-1 -48 -5 -87
-9 -87 -9 0 1 -82 11 -90 8 -7 7 -32 -2 -47 -5 -8 -4 -13 3 -13 6 0 8 -10 4
-24 -15 -60 47 -166 98 -166 14 0 35 11 48 26 21 21 22 27 10 35 -13 9 -12 10
2 6 21 -7 48 32 49 70 0 26 1 27 9 6 5 -13 5 -35 0 -52 -11 -40 3 -39 29 2 11
17 21 29 21 26 0 -12 -62 -164 -71 -173 -17 -18 -9 -28 16 -22 14 4 25 2 25
-4 0 -6 31 -10 74 -10 l75 0 17 55 c10 30 19 53 21 51 3 -2 -2 -27 -11 -55
l-15 -52 134 2 c129 1 134 2 138 22 4 21 4 21 6 -1 1 -20 5 -23 39 -20 32 3
38 7 49 38 10 31 12 32 12 9 1 -14 -4 -30 -11 -37 -9 -9 24 -12 150 -12 l162
0 0 1280 0 1280 -1280 0 -1280 0 0 -1280z m1336 1173 c-3 -10 -12 -47 -21 -83
-9 -36 -21 -83 -27 -105 l-11 -40 -28 110 c-16 61 -29 116 -29 123 0 8 19 12
61 12 53 0 60 -2 55 -17z m-193 -60 c4 -16 15 -59 27 -98 l20 -69 -70 69 c-39
38 -70 72 -70 75 0 5 71 49 81 50 4 0 9 -12 12 -27z m357 -21 c-1 -4 -30 -38
-66 -77 -73 -78 -73 -78 -33 57 l20 68 39 -20 c22 -11 40 -24 40 -28z m-650
-292 l0 -40 -60 0 -60 0 0 -175 0 -175 -50 0 -50 0 0 175 0 175 -60 0 -60 0 0
40 0 40 170 0 170 0 0 -40z m677 27 c78 -29 116 -94 116 -197 1 -156 -74 -220
-260 -220 l-83 0 0 215 0 215 98 -1 c53 0 111 -6 129 -12z m-400 -97 c72 -32
107 -121 84 -208 -30 -109 -165 -152 -255 -81 -91 72 -75 238 28 289 51 25 89
25 143 0z m840 0 c72 -32 107 -121 84 -208 -30 -109 -165 -152 -255 -81 -91
72 -75 238 28 289 51 25 89 25 143 0z m-537 -694 c135 -29 327 -129 289 -151
-8 -4 -11 -5 -7 0 16 17 -88 77 -142 81 -19 2 -60 8 -90 13 -138 25 -187 31
-210 25 -14 -3 -50 -8 -80 -10 -71 -5 -173 -39 -209 -70 -15 -13 -31 -21 -34
-18 -3 4 -21 -4 -39 -16 -29 -19 -28 -18 7 13 72 65 210 127 310 140 66 9 143
6 205 -7z m406 -28 c53 -36 117 -129 112 -163 -3 -21 -23 -23 -23 -2 -1 6 -7
11 -14 9 -7 -1 -21 3 -30 10 -9 6 -4 -1 10 -16 25 -26 25 -30 11 -46 -14 -18
-17 -17 -56 6 l-41 25 33 -28 c36 -31 40 -43 15 -43 -15 0 -15 -1 1 -13 29
-21 16 -51 -24 -57 -23 -3 -31 -8 -22 -13 6 -5 15 -6 20 -3 4 2 16 -3 27 -11
18 -14 14 -15 -50 -11 -87 6 -160 39 -146 66 53 96 89 188 96 237 8 65 14 85
25 85 4 0 30 -15 56 -32z m-156 -107 c14 -12 21 -21 17 -21 -8 0 -69 42 -92
63 -17 16 49 -22 75 -42z m-210 9 c6 -11 8 -20 6 -20 -3 0 -10 9 -16 20 -6 11
-8 20 -6 20 3 0 10 -9 16 -20z m-515 -52 c-27 -29 -51 -55 -53 -58 -3 -3 0 4
6 15 11 22 80 95 89 95 3 0 -16 -24 -42 -52z m738 -32 c-4 -6 -8 -5 -11 4 -3
8 -8 17 -11 20 -3 3 -15 16 -26 30 -12 16 -6 12 17 -9 21 -19 34 -39 31 -45z
m-778 34 c-3 -5 -12 -10 -18 -10 -7 0 -6 4 3 10 19 12 23 12 15 0z m176 -38
c-5 -10 -8 -28 -5 -38 3 -11 -3 -30 -15 -43 -15 -17 -21 -20 -21 -9 0 20 41
120 47 114 3 -2 0 -13 -6 -24z m585 -19 c-7 -7 -26 7 -26 19 0 6 6 6 15 -2 9
-7 13 -15 11 -17z m-707 8 c7 -5 10 -14 6 -20 -5 -9 -10 -9 -21 0 -26 22 -14
38 15 20z m1071 -1 c0 -5 -4 -10 -9 -10 -6 0 -13 5 -16 10 -3 6 1 10 9 10 9 0
16 -4 16 -10z m-1004 -41 c-15 -34 -15 -34 -9 -4 7 35 13 48 20 42 2 -3 -3
-20 -11 -38z m948 24 c-10 -7 -21 -13 -25 -13 -4 0 -9 6 -12 13 -4 10 4 14 25
14 28 0 29 -1 12 -14z m-434 -47 c0 -5 -7 -3 -15 4 -8 7 -15 22 -15 34 1 20 2
20 15 -4 8 -14 14 -29 15 -34z m50 44 c0 -3 -7 -13 -14 -22 -12 -16 -14 -16
-23 5 -9 19 -7 22 13 22 13 0 24 -2 24 -5z m490 -22 c0 -5 -9 -3 -20 4 -11 7
-20 16 -20 20 0 5 9 3 20 -4 11 -7 20 -16 20 -20z m-941 -24 c-9 -22 -13 -25
-16 -11 -3 9 -9 17 -14 17 -5 0 -9 7 -9 15 0 18 16 20 23 3 3 -9 7 -6 13 6 4
11 9 15 11 10 2 -6 -2 -24 -8 -40z m351 31 c0 -28 -1 -30 -16 -27 -9 2 -27 -4
-41 -13 -31 -21 -73 -7 -73 24 0 17 6 20 36 17 19 -1 37 1 40 6 9 15 54 9 54
-7z m440 -5 c0 -15 -26 -27 -44 -20 -14 4 -16 9 -8 14 7 4 16 4 22 1 6 -3 7 1
4 10 -5 11 -2 14 10 9 9 -3 16 -10 16 -14z m-680 -20 c0 -28 -2 -30 -27 -26
-16 2 -36 5 -45 5 -11 1 -18 9 -18 19 0 26 4 28 50 30 39 3 40 2 40 -28z m94
15 c10 -28 -4 -42 -41 -40 -37 1 -49 14 -39 40 7 20 72 20 80 0z m711 -10 c55
-54 18 -155 -58 -155 -76 0 -113 105 -54 156 37 31 81 31 112 -1z m-405 7 c0
-5 -7 -17 -15 -28 -14 -18 -14 -17 -4 9 12 27 19 34 19 19z m-849 -69 c-12
-20 -14 -14 -5 12 4 9 9 14 11 11 3 -2 0 -13 -6 -23z m1306 -5 c-3 -7 -5 -2
-5 12 0 14 2 19 5 13 2 -7 2 -19 0 -25z m-1070 -10 c-3 -8 -6 -5 -6 6 -1 11 2
17 5 13 3 -3 4 -12 1 -19z m861 -4 c1 -17 -2 -24 -11 -22 -17 6 -22 48 -5 48
8 0 15 -12 16 -26z m-247 -1 c13 -16 12 -17 -3 -4 -17 13 -22 21 -14 21 2 0
10 -8 17 -17z m544 -40 c33 -17 65 -43 65 -53 0 -19 -66 -103 -91 -116 -26
-13 -28 -17 -15 -29 24 -24 66 -161 53 -174 -15 -15 -27 -14 -27 2 0 25 -47
59 -70 52 -19 -6 -21 -4 -14 17 4 12 6 37 6 55 -1 21 5 36 16 42 12 7 13 10 3
11 -7 0 -41 -18 -74 -40 -33 -22 -65 -39 -71 -37 -15 5 -24 44 -24 102 1 28 3
39 5 26 3 -13 11 -31 19 -38 14 -14 18 -34 14 -63 -1 -11 1 -12 9 -4 8 7 7 24
-4 60 -20 68 -19 84 6 84 12 0 28 -8 36 -17 13 -17 13 -17 11 4 -2 12 9 34 25
52 23 27 31 30 48 20 19 -10 20 -9 9 11 -7 13 -8 20 -2 16 5 -3 12 1 16 9 3 8
-3 19 -12 25 -25 16 24 2 63 -17z m-1163 -138 c2 -71 1 -116 -3 -100 -7 30
-11 259 -4 240 2 -5 5 -68 7 -140z m888 111 c-13 -13 -35 7 -25 24 5 8 11 8
21 -1 10 -8 12 -15 4 -23z m30 -22 c0 -8 -4 -12 -10 -9 -5 3 -10 10 -10 16 0
5 5 9 10 9 6 0 10 -7 10 -16z m50 -16 c0 -4 -4 -8 -9 -8 -6 0 -12 4 -15 8 -3
5 1 9 9 9 8 0 15 -4 15 -9z m-1438 -105 c12 -14 14 -35 10 -100 -2 -46 -8 -83
-12 -83 -5 0 -20 14 -34 31 -63 74 -69 126 -18 153 35 19 36 19 54 -1z m1517
-125 c-6 -34 -18 -70 -25 -78 -12 -12 -14 -5 -14 49 0 53 3 66 23 81 12 10 23
17 25 15 2 -2 -2 -32 -9 -67z m-1619 49 c0 -7 11 -29 25 -49 l25 -37 -25 -25
c-18 -19 -25 -36 -25 -66 0 -22 -4 -40 -10 -40 -19 0 -32 44 -38 123 -4 70 -3
82 13 94 23 16 35 17 35 0z m598 -87 c0 -9 -3 -7 -8 5 -5 11 -8 29 -8 40 0 16
2 15 8 -5 4 -14 8 -32 8 -40z m1096 -19 c12 -13 16 -32 14 -57 -4 -46 -37 -73
-93 -77 l-40 -2 -3 42 c-3 34 0 42 18 48 11 3 27 20 35 36 18 33 44 37 69 10z
m-1602 -17 c23 -8 31 -94 9 -111 -39 -33 -91 2 -91 59 0 31 35 72 53 64 7 -3
19 -9 29 -12z m491 -4 c3 -11 1 -20 -4 -20 -5 0 -9 9 -9 20 0 11 2 20 4 20 2
0 6 -9 9 -20z m564 -12 c-3 -8 -6 -5 -6 6 -1 11 2 17 5 13 3 -3 4 -12 1 -19z
m3 -48 c0 -5 -6 -10 -12 -10 -8 0 -9 -3 -3 -8 6 -4 11 -31 12 -59 l2 -53 -39
0 -39 0 18 33 c10 17 24 49 31 70 10 34 30 51 30 27z m-94 -75 l14 30 -6 -30
c-7 -35 -3 -31 -32 -40 -21 -6 -23 -5 -13 13 6 12 12 33 13 49 1 19 3 16 6
-12 l4 -40 14 30z m-1075 -1 c-9 -28 -9 -29 -10 -3 -1 14 2 29 6 32 11 12 13
2 4 -29z m834 -4 c22 -42 18 -51 -5 -12 -20 33 -24 42 -15 42 2 0 11 -13 20
-30z m878 -1 c4 -16 3 -18 -8 -9 -8 7 -19 9 -25 5 -5 -3 -10 -2 -10 4 0 8 15
18 31 20 4 1 9 -8 12 -20z m-1601 -11 c-28 -30 -82 -62 -82 -49 0 6 6 11 13
11 8 0 27 13 43 30 34 34 58 41 26 8z m1095 -8 c-8 -38 7 -39 28 -2 9 15 13
18 10 7 -4 -11 -9 -29 -12 -40 -4 -17 -2 -17 17 5 21 24 21 24 10 2 -6 -13 -8
-27 -4 -30 4 -4 9 -1 11 6 6 17 33 -4 33 -25 0 -8 4 -12 9 -9 4 3 6 -6 3 -20
l-5 -26 -41 40 c-22 22 -51 43 -63 47 -24 7 -30 20 -13 30 6 3 10 15 10 26 0
10 3 19 6 19 4 0 4 -13 1 -30z m427 4 c5 -14 4 -15 -9 -4 -17 14 -19 20 -6 20
5 0 12 -7 15 -16z m-559 -34 c-3 -5 -12 -10 -18 -10 -7 0 -6 4 3 10 19 12 23
12 15 0z m705 -83 c0 -36 -1 -37 -17 -22 -13 13 -14 18 -3 25 10 6 10 15 1 41
-10 31 -9 32 4 15 8 -11 15 -37 15 -59z m-1827 -9 c-10 -19 -23 -5 -23 25 l0
32 14 -25 c7 -14 11 -28 9 -32z m297 -19 c35 -56 129 -137 140 -119 5 8 3 25
-6 41 -39 76 3 21 102 -133 3 -4 -21 7 -52 25 -67 38 -185 159 -214 219 -23
47 -9 32 30 -33z m1407 49 c-3 -8 -6 -5 -6 6 -1 11 2 17 5 13 3 -3 4 -12 1
-19z m-158 -54 c-19 -31 -56 -75 -84 -99 -50 -42 -145 -102 -145 -91 0 6 67
104 83 121 5 6 2 -5 -8 -24 l-17 -33 22 15 c12 9 28 13 34 11 16 -6 101 84
123 130 9 20 19 34 21 31 3 -2 -10 -30 -29 -61z m-1522 19 c-3 -10 -5 -4 -5
12 0 17 2 24 5 18 2 -7 2 -21 0 -30z m94 -44 c-17 -41 -30 -67 -30 -59 -1 17
51 141 56 136 2 -2 -10 -37 -26 -77z m-50 15 c-11 -15 -21 -24 -21 -20 0 10
34 55 39 51 2 -2 -6 -16 -18 -31z m1069 15 c0 -5 -7 -9 -15 -9 -15 0 -20 12
-9 23 8 8 24 -1 24 -14z m558 -4 c-3 -3 -9 2 -12 12 -6 14 -5 15 5 6 7 -7 10
-15 7 -18z m-1480 -10 c-6 -14 -13 -23 -15 -21 -5 5 15 46 22 46 3 0 -1 -11
-7 -25z m309 -34 c-15 -6 -20 8 -12 36 l8 28 6 -30 c4 -16 3 -32 -2 -34z m53
34 c0 -8 -4 -15 -9 -15 -13 0 -22 16 -14 24 11 11 23 6 23 -9z m1180 -20 c0
-5 -5 -3 -10 5 -5 8 -10 20 -10 25 0 6 5 3 10 -5 5 -8 10 -19 10 -25z m-378
-24 c-8 -21 -51 -91 -57 -91 -2 0 7 24 20 53 14 28 25 59 25 67 0 13 2 13 9 1
5 -8 7 -21 3 -30z m225 7 c-3 -8 -6 -5 -6 6 -1 11 2 17 5 13 3 -3 4 -12 1 -19z
m190 -20 c-3 -8 -6 -5 -6 6 -1 11 2 17 5 13 3 -3 4 -12 1 -19z m-1825 -42 c-6
-11 -20 20 -21 44 0 8 5 4 13 -10 7 -14 10 -29 8 -34z m1178 44 c0 -5 -2 -10
-4 -10 -3 0 -8 5 -11 10 -3 6 -1 10 4 10 6 0 11 -4 11 -10z m671 -41 c-5 -26
-9 -34 -10 -19 -1 27 9 73 15 67 2 -2 0 -23 -5 -48z m40 -1 c-8 -20 -9 -18 -9
15 1 26 4 34 10 24 4 -9 4 -26 -1 -39z m-1864 10 c-3 -7 -5 -2 -5 12 0 14 2
19 5 13 2 -7 2 -19 0 -25z m618 22 c3 -5 1 -10 -4 -10 -6 0 -11 5 -11 10 0 6
2 10 4 10 3 0 8 -4 11 -10z m1117 -74 c-3 -6 -11 6 -18 25 -19 52 -15 69 5 24
10 -22 16 -44 13 -49z m41 16 c5 -7 7 -15 4 -18 -8 -8 -37 51 -36 73 0 11 5 6
11 -12 6 -16 15 -36 21 -43z m-1740 43 c-3 -9 -8 -14 -10 -11 -3 3 -2 9 2 15
9 16 15 13 8 -4z m18 -38 c-13 -20 -21 -26 -21 -16 0 9 7 22 15 29 8 7 15 20
16 29 0 10 2 12 6 3 2 -7 -5 -27 -16 -45z m159 32 c-7 -11 -14 -18 -17 -15 -3
3 0 12 7 21 18 21 23 19 10 -6z m465 -1 c-2 -24 -25 -34 -52 -24 -20 8 -1 33
30 39 12 2 22 5 23 6 0 0 0 -9 -1 -21z m527 -20 c-14 -14 -46 -6 -50 14 -2 11
5 18 20 20 26 4 46 -18 30 -34z m-883 -43 l0 -20 -9 20 c-5 11 -9 27 -9 35 -1
13 0 13 9 0 5 -8 9 -24 9 -35z m-309 -30 c0 -5 -9 4 -20 20 -11 17 -20 35 -20
40 0 6 9 -3 20 -20 11 -16 20 -34 20 -40z m97 18 c-3 -10 -5 -4 -5 12 0 17 2
24 5 18 2 -7 2 -21 0 -30z m-37 23 c0 -2 -8 -10 -17 -17 -16 -13 -17 -12 -4 4
13 16 21 21 21 13z m1710 -38 c0 -5 -7 -3 -15 6 -8 8 -15 18 -15 22 0 3 7 1
15 -6 8 -7 15 -17 15 -22z m-1599 -5 c-12 -20 -14 -14 -5 12 4 9 9 14 11 11 3
-2 0 -13 -6 -23z m1460 -5 c6 -11 8 -22 5 -26 -3 -3 -6 0 -6 6 0 6 -10 21 -22
32 -18 16 -19 20 -5 14 10 -3 22 -15 28 -26z m-1656 2 c10 -11 16 -20 13 -20
-3 0 -13 9 -23 20 -10 11 -16 20 -13 20 3 0 13 -9 23 -20z"/>
<path d="M1400 1910 c0 -146 2 -151 65 -130 49 16 75 60 75 128 0 86 -36 131
-102 132 l-38 0 0 -130z"/>
<path d="M1034 1942 c-35 -23 -46 -111 -18 -150 20 -28 69 -30 84 -3 18 35 12
119 -10 141 -21 21 -38 25 -56 12z"/>
<path d="M1874 1942 c-35 -23 -46 -111 -18 -150 20 -28 69 -30 84 -3 18 35 12
119 -10 141 -21 21 -38 25 -56 12z"/>
<path d="M1987 1022 c-10 -10 -17 -23 -17 -29 0 -6 -7 -13 -15 -17 -32 -12
-16 -44 30 -61 53 -21 76 -15 73 19 -2 16 -7 22 -17 18 -10 -4 -11 -7 -3 -10
19 -6 14 -22 -8 -22 -24 0 -70 21 -70 32 0 4 7 8 15 8 9 0 12 6 8 15 -6 18 25
58 38 49 5 -3 9 0 9 5 0 17 -25 13 -43 -7z"/>
<path d="M2005 996 c-5 -11 -3 -21 6 -26 19 -12 21 -7 10 21 -8 22 -10 22 -16
5z"/>
<path d="M519 694 c-22 -25 -22 -26 -3 -16 12 6 24 18 28 27 8 21 3 19 -25
-11z"/>
<path d="M955 569 c-4 -6 -5 -12 -2 -15 2 -3 7 2 10 11 7 17 1 20 -8 4z"/>
</g>
</svg>
